<svg width="131" height="12" viewBox="0 0 131 12" fill="none" xmlns="http://www.w3.org/2000/svg">
<path d="M6.63144 11.5438C5.5861 11.5438 4.62077 11.2878 3.73544 10.7758C2.86077 10.2531 2.1621 9.55446 1.63944 8.67979C1.12744 7.79446 0.871438 6.82912 0.871438 5.78379C0.871438 4.73846 1.12744 3.77846 1.63944 2.90379C2.1621 2.01846 2.86077 1.31979 3.73544 0.807789C4.62077 0.285122 5.5861 0.0237885 6.63144 0.0237885C7.67677 0.0237885 8.63677 0.285122 9.51144 0.807789C10.3968 1.31979 11.0954 2.01846 11.6074 2.90379C12.1301 3.77846 12.3914 4.73846 12.3914 5.78379C12.3914 6.82912 12.1301 7.79446 11.6074 8.67979C11.0954 9.55446 10.3968 10.2531 9.51144 10.7758C8.63677 11.2878 7.67677 11.5438 6.63144 11.5438ZM6.63144 10.5358C7.48477 10.5358 8.26877 10.3225 8.98344 9.89579C9.6981 9.45846 10.2634 8.87712 10.6794 8.15179C11.1061 7.42646 11.3194 6.63712 11.3194 5.78379C11.3194 4.93046 11.1061 4.14112 10.6794 3.41579C10.2634 2.67979 9.69277 2.09846 8.96744 1.67179C8.25277 1.23446 7.4741 1.01579 6.63144 1.01579C5.78877 1.01579 5.00477 1.23446 4.27944 1.67179C3.56477 2.09846 2.99944 2.67979 2.58344 3.41579C2.16744 4.14112 1.95944 4.93046 1.95944 5.78379C1.95944 6.63712 2.16744 7.42646 2.58344 8.15179C2.99944 8.87712 3.56477 9.45846 4.27944 9.89579C5.00477 10.3225 5.78877 10.5358 6.63144 10.5358ZM6.63144 8.85579C5.8421 8.85579 5.21277 8.61579 4.74344 8.13579C4.2741 7.65579 4.02877 7.05312 4.00744 6.32779L3.99144 5.76779L4.00744 5.20779C4.02877 4.48246 4.2741 3.87979 4.74344 3.39979C5.21277 2.91979 5.8421 2.67979 6.63144 2.67979C7.1861 2.67979 7.65544 2.77046 8.03944 2.95179C8.4341 3.13312 8.72744 3.36246 8.91944 3.63979C9.1221 3.90646 9.22877 4.17846 9.23944 4.45579C9.23944 4.56246 9.20744 4.64779 9.14344 4.71179C9.07944 4.77579 8.9941 4.80779 8.88744 4.80779H8.37544C8.26877 4.80779 8.18877 4.78112 8.13544 4.72779C8.0821 4.67446 8.0341 4.59979 7.99144 4.50379C7.89544 4.25846 7.74077 4.07179 7.52744 3.94379C7.3141 3.81579 7.01544 3.75179 6.63144 3.75179C6.11944 3.75179 5.75677 3.89579 5.54344 4.18379C5.34077 4.47179 5.22877 4.81846 5.20744 5.22379L5.19144 5.76779L5.20744 6.31179C5.22877 6.71712 5.34077 7.06379 5.54344 7.35179C5.75677 7.63979 6.11944 7.78379 6.63144 7.78379C7.01544 7.78379 7.3141 7.71979 7.52744 7.59179C7.74077 7.46379 7.89544 7.27712 7.99144 7.03179C8.0341 6.93579 8.0821 6.86112 8.13544 6.80779C8.18877 6.75446 8.26877 6.72779 8.37544 6.72779H8.88744C8.9941 6.72779 9.07944 6.75979 9.14344 6.82379C9.20744 6.88779 9.23944 6.97312 9.23944 7.07979C9.22877 7.35712 9.1221 7.63446 8.91944 7.91179C8.72744 8.17846 8.4341 8.40246 8.03944 8.58379C7.65544 8.76512 7.1861 8.85579 6.63144 8.85579ZM14.3942 11.3838C14.2875 11.3838 14.1969 11.3518 14.1222 11.2878C14.0582 11.2131 14.0262 11.1225 14.0262 11.0158V10.5038C14.0262 10.2585 14.1595 10.0238 14.4262 9.79979L17.8182 6.40779C18.6395 5.72512 19.2049 5.17046 19.5142 4.74379C19.8235 4.30646 19.9782 3.84779 19.9782 3.36779C19.9782 2.74912 19.8022 2.26379 19.4502 1.91179C19.1089 1.55979 18.6075 1.38379 17.9462 1.38379C17.3275 1.38379 16.8315 1.57046 16.4582 1.94379C16.0849 2.30645 15.8555 2.79179 15.7702 3.39979C15.7489 3.52779 15.6955 3.62379 15.6102 3.68779C15.5355 3.74112 15.4502 3.76779 15.3542 3.76779H14.5222C14.4262 3.76779 14.3462 3.74112 14.2822 3.68779C14.2182 3.62379 14.1862 3.54912 14.1862 3.46379C14.2075 2.88779 14.3622 2.33846 14.6502 1.81579C14.9382 1.28246 15.3595 0.850456 15.9142 0.519789C16.4795 0.178455 17.1569 0.00778866 17.9462 0.00778866C19.1515 0.00778866 20.0582 0.322455 20.6662 0.951789C21.2849 1.57046 21.5942 2.35979 21.5942 3.31979C21.5942 3.99179 21.4235 4.59979 21.0822 5.14379C20.7515 5.67712 20.2342 6.25312 19.5302 6.87179L16.4582 9.99179H21.4502C21.5675 9.99179 21.6582 10.0291 21.7222 10.1038C21.7969 10.1678 21.8342 10.2531 21.8342 10.3598V11.0158C21.8342 11.1225 21.7969 11.2131 21.7222 11.2878C21.6475 11.3518 21.5569 11.3838 21.4502 11.3838H14.3942ZM27.7048 11.5438C26.3288 11.5438 25.3208 11.1438 24.6808 10.3438C24.0408 9.54379 23.6995 8.49312 23.6568 7.19179C23.6461 6.90379 23.6408 6.43979 23.6408 5.79979C23.6408 5.13846 23.6461 4.65846 23.6568 4.35979C23.6888 3.07979 24.0301 2.03979 24.6808 1.23979C25.3315 0.429122 26.3395 0.0237885 27.7048 0.0237885C29.0808 0.0237885 30.0941 0.429122 30.7448 1.23979C31.3955 2.03979 31.7368 3.07979 31.7688 4.35979C31.7901 4.95712 31.8008 5.43712 31.8008 5.79979C31.8008 6.15179 31.7901 6.61579 31.7688 7.19179C31.7261 8.49312 31.3848 9.54379 30.7448 10.3438C30.1048 11.1438 29.0915 11.5438 27.7048 11.5438ZM27.7048 10.1678C28.5048 10.1678 29.1075 9.90112 29.5128 9.36779C29.9288 8.83446 30.1475 8.08246 30.1688 7.11179C30.1901 6.49312 30.2008 6.04512 30.2008 5.76779C30.2008 5.46912 30.1901 5.03179 30.1688 4.45579C30.1475 3.49579 29.9341 2.74379 29.5288 2.19979C29.1235 1.65579 28.5155 1.38379 27.7048 1.38379C26.9048 1.38379 26.2968 1.65579 25.8808 2.19979C25.4755 2.74379 25.2621 3.49579 25.2408 4.45579L25.2248 5.76779L25.2408 7.11179C25.2621 8.08246 25.4755 8.83446 25.8808 9.36779C26.2968 9.90112 26.9048 10.1678 27.7048 10.1678ZM33.9411 11.3838C33.8344 11.3838 33.7437 11.3518 33.6691 11.2878C33.6051 11.2131 33.5731 11.1225 33.5731 11.0158V10.5038C33.5731 10.2585 33.7064 10.0238 33.9731 9.79979L37.3651 6.40779C38.1864 5.72512 38.7517 5.17046 39.0611 4.74379C39.3704 4.30646 39.5251 3.84779 39.5251 3.36779C39.5251 2.74912 39.3491 2.26379 38.9971 1.91179C38.6557 1.55979 38.1544 1.38379 37.4931 1.38379C36.8744 1.38379 36.3784 1.57046 36.0051 1.94379C35.6317 2.30645 35.4024 2.79179 35.3171 3.39979C35.2957 3.52779 35.2424 3.62379 35.1571 3.68779C35.0824 3.74112 34.9971 3.76779 34.9011 3.76779H34.0691C33.9731 3.76779 33.8931 3.74112 33.8291 3.68779C33.7651 3.62379 33.7331 3.54912 33.7331 3.46379C33.7544 2.88779 33.9091 2.33846 34.1971 1.81579C34.4851 1.28246 34.9064 0.850456 35.4611 0.519789C36.0264 0.178455 36.7037 0.00778866 37.4931 0.00778866C38.6984 0.00778866 39.6051 0.322455 40.2131 0.951789C40.8317 1.57046 41.1411 2.35979 41.1411 3.31979C41.1411 3.99179 40.9704 4.59979 40.6291 5.14379C40.2984 5.67712 39.7811 6.25312 39.0771 6.87179L36.0051 9.99179H40.9971C41.1144 9.99179 41.2051 10.0291 41.2691 10.1038C41.3437 10.1678 41.3811 10.2531 41.3811 10.3598V11.0158C41.3811 11.1225 41.3437 11.2131 41.2691 11.2878C41.1944 11.3518 41.1037 11.3838 40.9971 11.3838H33.9411ZM47.2517 11.5438C45.8757 11.5438 44.8677 11.1438 44.2277 10.3438C43.5877 9.54379 43.2464 8.49312 43.2037 7.19179C43.193 6.90379 43.1877 6.43979 43.1877 5.79979C43.1877 5.13846 43.193 4.65846 43.2037 4.35979C43.2357 3.07979 43.577 2.03979 44.2277 1.23979C44.8784 0.429122 45.8864 0.0237885 47.2517 0.0237885C48.6277 0.0237885 49.641 0.429122 50.2917 1.23979C50.9424 2.03979 51.2837 3.07979 51.3157 4.35979C51.337 4.95712 51.3477 5.43712 51.3477 5.79979C51.3477 6.15179 51.337 6.61579 51.3157 7.19179C51.273 8.49312 50.9317 9.54379 50.2917 10.3438C49.6517 11.1438 48.6384 11.5438 47.2517 11.5438ZM47.2517 10.1678C48.0517 10.1678 48.6544 9.90112 49.0597 9.36779C49.4757 8.83446 49.6944 8.08246 49.7157 7.11179C49.737 6.49312 49.7477 6.04512 49.7477 5.76779C49.7477 5.46912 49.737 5.03179 49.7157 4.45579C49.6944 3.49579 49.481 2.74379 49.0757 2.19979C48.6704 1.65579 48.0624 1.38379 47.2517 1.38379C46.4517 1.38379 45.8437 1.65579 45.4277 2.19979C45.0224 2.74379 44.809 3.49579 44.7877 4.45579L44.7717 5.76779L44.7877 7.11179C44.809 8.08246 45.0224 8.83446 45.4277 9.36779C45.8437 9.90112 46.4517 10.1678 47.2517 10.1678ZM54.0959 11.3838C53.9893 11.3838 53.8986 11.3518 53.8239 11.2878C53.7599 11.2131 53.7279 11.1225 53.7279 11.0158V0.551788C53.7279 0.445122 53.7599 0.359789 53.8239 0.295789C53.8986 0.221122 53.9893 0.183788 54.0959 0.183788H54.9439C55.0506 0.183788 55.1359 0.221122 55.1999 0.295789C55.2746 0.359789 55.3119 0.445122 55.3119 0.551788V9.99179H60.6239C60.7413 9.99179 60.8319 10.0291 60.8959 10.1038C60.9706 10.1678 61.0079 10.2585 61.0079 10.3758V11.0158C61.0079 11.1225 60.9706 11.2131 60.8959 11.2878C60.8213 11.3518 60.7306 11.3838 60.6239 11.3838H54.0959ZM64.8556 11.5438C64.3329 11.5438 63.8476 11.4371 63.3996 11.2238C62.9516 11.0105 62.5942 10.7225 62.3276 10.3598C62.0716 9.98646 61.9436 9.57579 61.9436 9.12779C61.9436 8.42379 62.2316 7.84779 62.8076 7.39979C63.3942 6.94112 64.1836 6.64246 65.1756 6.50379L67.5596 6.16779V5.70379C67.5596 4.61579 66.9356 4.07179 65.6876 4.07179C65.2182 4.07179 64.8342 4.17312 64.5356 4.37579C64.2369 4.56779 64.0129 4.79712 63.8636 5.06379C63.8316 5.15979 63.7889 5.22912 63.7356 5.27179C63.6929 5.31446 63.6289 5.33579 63.5436 5.33579H62.8556C62.7596 5.33579 62.6742 5.30379 62.5996 5.23979C62.5356 5.16512 62.5036 5.07979 62.5036 4.98379C62.5142 4.72779 62.6316 4.43979 62.8556 4.11979C63.0902 3.78912 63.4476 3.50646 63.9276 3.27179C64.4076 3.02646 64.9996 2.90379 65.7036 2.90379C66.8982 2.90379 67.7569 3.18646 68.2796 3.75179C68.8022 4.30646 69.0636 4.99979 69.0636 5.83179V11.0158C69.0636 11.1225 69.0262 11.2131 68.9516 11.2878C68.8876 11.3518 68.8022 11.3838 68.6956 11.3838H67.9596C67.8529 11.3838 67.7622 11.3518 67.6876 11.2878C67.6236 11.2131 67.5916 11.1225 67.5916 11.0158V10.3278C67.3569 10.6691 67.0156 10.9571 66.5676 11.1918C66.1196 11.4265 65.5489 11.5438 64.8556 11.5438ZM65.1916 10.3438C65.8849 10.3438 66.4502 10.1198 66.8876 9.67179C67.3356 9.21312 67.5596 8.55712 67.5596 7.70379V7.25579L65.7036 7.52779C64.9462 7.63446 64.3756 7.81579 63.9916 8.07179C63.6076 8.31712 63.4156 8.63179 63.4156 9.01579C63.4156 9.44246 63.5916 9.77312 63.9436 10.0078C64.2956 10.2318 64.7116 10.3438 65.1916 10.3438ZM74.2437 11.5438C73.497 11.5438 72.8677 11.4265 72.3557 11.1918C71.8544 10.9465 71.4757 10.6691 71.2197 10.3598C70.9744 10.0505 70.8517 9.79446 70.8517 9.59179C70.8517 9.48512 70.889 9.40512 70.9637 9.35179C71.049 9.28779 71.1344 9.25579 71.2197 9.25579H71.9397C72.0464 9.25579 72.1424 9.30912 72.2277 9.41579C72.4837 9.71446 72.761 9.94912 73.0597 10.1198C73.3584 10.2905 73.7584 10.3758 74.2597 10.3758C74.8144 10.3758 75.2624 10.2691 75.6037 10.0558C75.9557 9.83179 76.1317 9.52779 76.1317 9.14379C76.1317 8.88779 76.057 8.67979 75.9077 8.51979C75.769 8.34912 75.5237 8.20512 75.1717 8.08779C74.8304 7.95979 74.3184 7.82112 73.6357 7.67179C72.7077 7.46912 72.0464 7.17579 71.6517 6.79179C71.2677 6.40779 71.0757 5.91179 71.0757 5.30379C71.0757 4.89846 71.193 4.51446 71.4277 4.15179C71.673 3.77846 72.025 3.47979 72.4837 3.25579C72.953 3.02112 73.513 2.90379 74.1637 2.90379C74.8464 2.90379 75.4277 3.01579 75.9077 3.23979C76.3877 3.46379 76.745 3.73046 76.9797 4.03979C77.225 4.33846 77.3477 4.58912 77.3477 4.79179C77.3477 4.88779 77.3104 4.96779 77.2357 5.03179C77.1717 5.09579 77.0917 5.12779 76.9957 5.12779H76.3237C76.1957 5.12779 76.089 5.07446 76.0037 4.96779C75.833 4.76512 75.6837 4.61046 75.5557 4.50379C75.4384 4.38646 75.2624 4.28512 75.0277 4.19979C74.8037 4.11446 74.5157 4.07179 74.1637 4.07179C73.6517 4.07179 73.257 4.18379 72.9797 4.40779C72.7024 4.62112 72.5637 4.90379 72.5637 5.25579C72.5637 5.47979 72.6224 5.67179 72.7397 5.83179C72.857 5.98112 73.081 6.11979 73.4117 6.24779C73.753 6.37579 74.2437 6.50912 74.8837 6.64779C75.897 6.86112 76.6117 7.17046 77.0277 7.57579C77.4544 7.97046 77.6677 8.47712 77.6677 9.09579C77.6677 9.55446 77.5344 9.97046 77.2677 10.3438C77.001 10.7171 76.6064 11.0105 76.0837 11.2238C75.5717 11.4371 74.9584 11.5438 74.2437 11.5438ZM79.9039 11.3838C79.7973 11.3838 79.7066 11.3518 79.6319 11.2878C79.5679 11.2131 79.5359 11.1225 79.5359 11.0158V0.391788C79.5359 0.285122 79.5679 0.199789 79.6319 0.135789C79.7066 0.0611219 79.7973 0.0237885 79.9039 0.0237885H80.6559C80.7626 0.0237885 80.8479 0.0611219 80.9119 0.135789C80.9866 0.199789 81.0239 0.285122 81.0239 0.391788V11.0158C81.0239 11.1225 80.9866 11.2131 80.9119 11.2878C80.8479 11.3518 80.7626 11.3838 80.6559 11.3838H79.9039ZM86.7386 11.5438C85.6399 11.5438 84.7599 11.2078 84.0986 10.5358C83.4479 9.85312 83.0906 8.92512 83.0266 7.75179L83.0106 7.20779L83.0266 6.67979C83.1012 5.52779 83.4639 4.61046 84.1146 3.92779C84.7759 3.24512 85.6452 2.90379 86.7226 2.90379C87.9066 2.90379 88.8239 3.28246 89.4746 4.03979C90.1252 4.78646 90.4506 5.79979 90.4506 7.07979V7.35179C90.4506 7.45846 90.4132 7.54912 90.3386 7.62379C90.2746 7.68779 90.1892 7.71979 90.0826 7.71979H84.5466V7.86379C84.5786 8.55712 84.7866 9.14912 85.1706 9.63979C85.5652 10.1198 86.0826 10.3598 86.7226 10.3598C87.2132 10.3598 87.6132 10.2638 87.9226 10.0718C88.2426 9.86912 88.4772 9.66112 88.6266 9.44779C88.7226 9.31979 88.7919 9.24512 88.8346 9.22379C88.8879 9.19179 88.9786 9.17579 89.1066 9.17579H89.8906C89.9866 9.17579 90.0666 9.20246 90.1306 9.25579C90.1946 9.30912 90.2266 9.38379 90.2266 9.47979C90.2266 9.71446 90.0772 9.99712 89.7786 10.3278C89.4906 10.6585 89.0799 10.9465 88.5466 11.1918C88.0239 11.4265 87.4212 11.5438 86.7386 11.5438ZM88.9306 6.61579V6.56779C88.9306 5.83179 88.7279 5.23446 88.3226 4.77579C87.9279 4.30646 87.3946 4.07179 86.7226 4.07179C86.0506 4.07179 85.5172 4.30646 85.1226 4.77579C84.7386 5.23446 84.5466 5.83179 84.5466 6.56779V6.61579H88.9306ZM95.2437 11.5438C94.497 11.5438 93.8677 11.4265 93.3557 11.1918C92.8544 10.9465 92.4757 10.6691 92.2197 10.3598C91.9744 10.0505 91.8517 9.79446 91.8517 9.59179C91.8517 9.48512 91.889 9.40512 91.9637 9.35179C92.049 9.28779 92.1344 9.25579 92.2197 9.25579H92.9397C93.0464 9.25579 93.1424 9.30912 93.2277 9.41579C93.4837 9.71446 93.761 9.94912 94.0597 10.1198C94.3584 10.2905 94.7584 10.3758 95.2597 10.3758C95.8144 10.3758 96.2624 10.2691 96.6037 10.0558C96.9557 9.83179 97.1317 9.52779 97.1317 9.14379C97.1317 8.88779 97.057 8.67979 96.9077 8.51979C96.769 8.34912 96.5237 8.20512 96.1717 8.08779C95.8304 7.95979 95.3184 7.82112 94.6357 7.67179C93.7077 7.46912 93.0464 7.17579 92.6517 6.79179C92.2677 6.40779 92.0757 5.91179 92.0757 5.30379C92.0757 4.89846 92.193 4.51446 92.4277 4.15179C92.673 3.77846 93.025 3.47979 93.4837 3.25579C93.953 3.02112 94.513 2.90379 95.1637 2.90379C95.8464 2.90379 96.4277 3.01579 96.9077 3.23979C97.3877 3.46379 97.745 3.73046 97.9797 4.03979C98.225 4.33846 98.3477 4.58912 98.3477 4.79179C98.3477 4.88779 98.3104 4.96779 98.2357 5.03179C98.1717 5.09579 98.0917 5.12779 97.9957 5.12779H97.3237C97.1957 5.12779 97.089 5.07446 97.0037 4.96779C96.833 4.76512 96.6837 4.61046 96.5557 4.50379C96.4384 4.38646 96.2624 4.28512 96.0277 4.19979C95.8037 4.11446 95.5157 4.07179 95.1637 4.07179C94.6517 4.07179 94.257 4.18379 93.9797 4.40779C93.7024 4.62112 93.5637 4.90379 93.5637 5.25579C93.5637 5.47979 93.6224 5.67179 93.7397 5.83179C93.857 5.98112 94.081 6.11979 94.4117 6.24779C94.753 6.37579 95.2437 6.50912 95.8837 6.64779C96.897 6.86112 97.6117 7.17046 98.0277 7.57579C98.4544 7.97046 98.6677 8.47712 98.6677 9.09579C98.6677 9.55446 98.5344 9.97046 98.2677 10.3438C98.001 10.7171 97.6064 11.0105 97.0837 11.2238C96.5717 11.4371 95.9584 11.5438 95.2437 11.5438ZM103.848 11.3838C103.539 11.3838 103.336 11.2345 103.24 10.9358L99.8159 0.663789L99.7839 0.519789C99.7839 0.423789 99.8159 0.343789 99.8799 0.279789C99.9439 0.215789 100.024 0.183788 100.12 0.183788H101.528C101.667 0.183788 101.773 0.221122 101.848 0.295789C101.933 0.359789 101.992 0.439789 102.024 0.535789L104.728 8.77579L107.432 0.535789C107.453 0.450455 107.507 0.370455 107.592 0.295789C107.677 0.221122 107.789 0.183788 107.928 0.183788H109.336C109.421 0.183788 109.496 0.215789 109.56 0.279789C109.635 0.343789 109.672 0.423789 109.672 0.519789L109.64 0.663789L106.216 10.9358C106.12 11.2345 105.917 11.3838 105.608 11.3838H103.848ZM111.749 11.3838C111.643 11.3838 111.552 11.3465 111.477 11.2718C111.403 11.1971 111.365 11.1065 111.365 10.9998V0.583789C111.365 0.466455 111.397 0.370455 111.461 0.295789C111.536 0.221122 111.632 0.183788 111.749 0.183788H116.037C117.317 0.183788 118.325 0.487789 119.061 1.09579C119.797 1.69312 120.165 2.57312 120.165 3.73579C120.165 4.89846 119.797 5.77846 119.061 6.37579C118.336 6.96246 117.328 7.25579 116.037 7.25579H113.653V10.9998C113.653 11.1065 113.616 11.1971 113.541 11.2718C113.477 11.3465 113.387 11.3838 113.269 11.3838H111.749ZM115.957 5.47979C116.576 5.47979 117.051 5.33579 117.381 5.04779C117.712 4.74912 117.877 4.31179 117.877 3.73579C117.877 3.18112 117.717 2.74912 117.397 2.43979C117.077 2.11979 116.597 1.95979 115.957 1.95979H113.621V5.47979H115.957ZM122.296 11.3838C122.189 11.3838 122.099 11.3465 122.024 11.2718C121.949 11.1971 121.912 11.1065 121.912 10.9998V0.583789C121.912 0.466455 121.944 0.370455 122.008 0.295789C122.083 0.221122 122.179 0.183788 122.296 0.183788H123.528C123.656 0.183788 123.752 0.210455 123.816 0.263788C123.88 0.306455 123.939 0.365122 123.992 0.439789L128.6 7.60779V0.583789C128.6 0.466455 128.632 0.370455 128.696 0.295789C128.771 0.221122 128.867 0.183788 128.984 0.183788H130.328C130.445 0.183788 130.541 0.221122 130.616 0.295789C130.691 0.370455 130.728 0.466455 130.728 0.583789V10.9838C130.728 11.1011 130.691 11.1971 130.616 11.2718C130.541 11.3465 130.451 11.3838 130.344 11.3838H129.096C128.915 11.3838 128.76 11.2985 128.632 11.1278L124.04 4.11979V10.9998C124.04 11.1171 124.003 11.2131 123.928 11.2878C123.853 11.3518 123.757 11.3838 123.64 11.3838H122.296Z" fill="#AFB5C0"/>
</svg>
